<svg width="138" height="32" viewBox="0 0 138 32" fill="none" xmlns="http://www.w3.org/2000/svg">
<g clip-path="url(#clip0_1_22)">
<path d="M74.9553 19.0438L72.6053 17.6485C69.9616 16.1797 68.5664 15.225 68.5664 13.4626C68.5664 12.1407 69.7413 11.1126 71.2835 11.1126C74.3678 11.1126 75.8365 13.536 76.2038 16.5469H76.7178L77.8928 10.0111C76.8646 9.57043 75.249 9.27668 73.6335 9.27668C67.9788 9.27668 65.1883 12.2876 65.1883 15.7391C65.1883 18.6766 67.6117 20.2187 69.521 21.2468L72.7523 23.0827C74.8819 24.1843 75.91 25.2859 75.91 26.9015C75.91 28.1499 74.9553 29.6187 72.7523 29.6187C69.7413 29.6187 67.3179 26.9015 66.3632 23.0093H65.9226L64.6742 24.6984C63.0585 26.6077 61.2226 28.1499 58.2852 28.1499C53.7322 28.1499 51.6024 24.7718 51.6024 20.2187H62.7648V17.2078C62.7648 13.022 60.7086 9.35012 55.7149 9.35012C49.84 9.35012 46.976 14.6375 46.976 20.5859C46.976 23.2296 47.6369 25.4327 48.7384 27.1952C48.0041 28.003 46.976 28.8843 45.5806 28.8843C44.112 28.8843 43.3776 27.4889 43.3776 25.3593V0.904907C43.2307 0.978344 43.0839 1.05178 42.9369 1.12522C41.2479 1.93302 39.7058 2.52052 38.0167 2.96114C38.0902 3.108 38.1636 3.25488 38.1636 3.40175C38.898 5.31111 38.9714 7.58764 38.9714 10.0111V24.4781C38.9714 25.5796 39.1183 26.5343 39.3385 27.3421C38.7511 28.1499 37.9433 29.0311 36.8417 29.0311C35.4464 29.0311 34.3449 27.9296 34.3449 25.7265V17.2813C34.3449 13.6094 33.6105 9.27668 27.5153 9.27668C22.1544 9.27668 19.9513 12.6547 19.9513 15.9594L23.9904 17.5016C23.9904 17.5016 23.4763 10.7454 27.1481 10.7454C30.0856 10.7454 30.0122 14.0501 30.0122 16.9141V17.9422C30.0122 18.6031 28.47 19.4844 25.5324 20.5859C22.9622 21.614 19.0701 22.9359 19.0701 26.6811C19.0701 29.3983 21.0528 31.3811 23.9904 31.3811C26.3403 31.3811 28.6168 30.0592 30.0856 28.003C30.159 29.0311 31.7746 31.3811 34.2714 31.3811C36.8417 31.3811 38.6042 29.8389 39.7058 28.3702C40.6604 30.4265 42.3495 31.3811 44.3323 31.3811C46.4619 31.3811 48.1509 29.5452 49.2525 27.9296C50.9416 30.0592 53.3649 31.3811 56.1556 31.3811C59.6071 31.3811 62.0304 29.1046 63.4258 26.9015C64.307 28.0765 67.0976 31.3811 71.5038 31.3811C75.1756 31.3811 78.7005 28.9577 78.7005 24.6984C78.774 21.5406 76.6444 19.9985 74.9553 19.0438ZM30.0856 26.9749C29.1309 27.7093 27.9559 28.3702 26.7075 28.3702C24.5778 28.3702 23.5497 26.8281 23.5497 24.9921C23.5497 22.5687 24.7982 21.4671 28.6168 21.4671C29.9386 21.4671 30.0856 21.614 30.0856 22.4218V26.9749ZM51.6024 18.4563C51.6024 13.4626 52.7775 10.8188 55.1274 10.8188C57.0368 10.8188 58.3586 12.7282 58.3586 17.0609C58.3586 18.75 58.1384 18.9703 56.8164 18.9703H51.6759L51.6024 18.4563Z" fill="white"/>
<path d="M86.3364 24.4781V0.904907C84.5005 1.78615 82.8114 2.44708 80.9755 2.96114C81.8568 4.87049 81.9302 7.36733 81.9302 9.93761V24.4046C81.9302 26.6812 81.7833 28.4437 80.9021 30.7936H87.8786C87.952 30.7936 86.3364 28.7374 86.3364 24.4781Z" fill="white"/>
<path d="M97.9417 9.27991C92.7278 9.27991 89.2029 13.6861 89.2029 20.4422C89.2029 26.7579 92.4341 31.3843 97.5751 31.3843C102.788 31.3843 106.314 27.0516 106.314 20.3688C106.314 14.0533 103.083 9.27991 97.9417 9.27991ZM98.0884 29.6953C95.2247 29.6953 93.9763 24.5547 93.9763 19.047C93.9763 13.833 95.0778 10.822 97.3541 10.822C100.292 10.822 101.467 16.183 101.467 21.6907C101.467 27.0516 100.292 29.6953 98.0884 29.6953Z" fill="white"/>
<path d="M125.184 10.822H131.206V9.64698H125.184V3.77206C123.715 4.72674 122.173 5.4611 120.557 6.04859C120.705 7.59076 120.705 8.54544 120.778 9.64698H113.508C112.92 7.88451 112.553 6.41577 112.553 5.24079C112.553 3.77206 113.067 2.96426 114.242 2.96426C115.417 2.96426 116.592 4.43299 117.62 8.10482H118.134L119.383 1.49552C119.383 1.49552 118.354 0.834595 116.886 0.834595C111.525 0.834595 109.395 4.94704 109.322 9.57355H106.898V10.7485H109.322V10.9688V23.8937C109.322 26.1702 109.249 28.2999 108.293 30.7967H114.683C113.728 28.3733 113.654 26.1702 113.654 23.8937V11.0422V10.822H120.778V11.0422V25.5827C120.778 29.4014 122.32 31.3842 124.891 31.3842C127.901 31.3842 130.031 28.8874 130.031 26.5374C129.003 27.2718 128.195 27.7859 127.313 27.7859C125.184 27.7859 125.184 25.4359 125.184 24.4812V11.0422V10.822Z" fill="white"/>
<path d="M5.55736 8.54068C5.55736 6.63132 7.39328 5.08915 9.74325 5.08915C12.7542 5.08915 14.5901 6.48445 15.6182 13.7547H16.2791L17.2338 3.84073C10.4042 1.49076 2.0324 3.98761 1.88554 11.1109C1.88554 18.8218 14.1494 18.8218 14.1494 25.8717C14.1494 27.9279 12.3135 29.3232 10.2573 29.3232C4.823 29.3232 3.57457 24.7702 3.28083 19.9968H2.6199L0.857422 28.9561C0.857422 28.9561 4.89643 31.306 9.22919 31.306C14.4432 31.2326 17.8948 27.4139 18.0416 23.3748C18.0416 15.664 5.55736 14.0485 5.55736 8.54068Z" fill="white"/>
<path d="M132.308 28.5908C132.308 27.122 133.484 25.8737 135.025 25.8737C136.642 25.8737 137.817 27.122 137.817 28.5908C137.817 30.0596 136.642 31.3079 135.1 31.3079C133.41 31.3814 132.308 30.0596 132.308 28.5908Z" fill="#B4D625"/>
</g>
<defs>
<clipPath id="clip0_1_22">
<rect width="137.143" height="30.4762" fill="white" transform="translate(0.857056 0.904907)"/>
</clipPath>
</defs>
</svg>
